<svg width="61" height="60" viewBox="0 0 61 60" fill="none" xmlns="http://www.w3.org/2000/svg">
<path d="M55.0268 7.40577C55.0306 6.49276 54.6781 5.63561 54.0342 4.99204C53.3903 4.34847 52.5311 3.9967 51.6193 4.00002C50.7085 4.00383 49.851 4.36156 49.2049 5.00727C48.9313 5.28072 48.4336 5.87136 48.1614 6.19919C47.8755 6.54344 47.9228 7.0542 48.2672 7.33985C48.6116 7.6256 49.1226 7.57833 49.4085 7.23408C49.8349 6.72079 50.1873 6.31658 50.351 6.1529C50.6928 5.81139 51.1455 5.62213 51.6261 5.62008C51.6287 5.62008 51.6312 5.62008 51.6338 5.62008C52.1089 5.62008 52.5541 5.80368 52.8881 6.13757C53.2239 6.47322 53.4079 6.92118 53.4058 7.39893C53.4038 7.87912 53.2144 8.33167 52.8727 8.67337C52.5668 8.97914 51.5153 9.81285 50.0087 10.8647C49.1175 9.34185 47.4647 8.31594 45.5757 8.31594H33.7076C32.1056 8.31594 30.5995 8.93949 29.4665 10.0716L5.74386 33.7824C5.2642 34.2619 5 34.8993 5 35.5772C5 36.2552 5.2642 36.8927 5.74386 37.372L21.6378 53.2578C22.133 53.7526 22.7832 54 23.4335 54C24.0839 54 24.7342 53.7525 25.2292 53.2578L48.9521 29.5472C50.0848 28.4149 50.7087 26.9096 50.7087 25.3083V13.4464C50.7087 13.0963 50.6732 12.7545 50.606 12.4239C52.3209 11.2445 53.5798 10.2579 54.0189 9.81901C54.6651 9.17329 55.023 8.31624 55.0268 7.40577ZM49.0878 25.3083C49.0878 26.4768 48.6325 27.5754 47.806 28.4015L24.0831 52.1123C23.7251 52.4702 23.1422 52.4702 22.784 52.1123L6.89008 36.2264C6.71664 36.0531 6.62099 35.8225 6.62099 35.5772C6.62099 35.3319 6.71655 35.1014 6.89008 34.9281L30.6129 11.2175C31.4396 10.3913 32.5386 9.93629 33.7076 9.93629H45.5756C46.9083 9.93629 48.0701 10.6821 48.6649 11.778C47.7076 12.4116 46.6356 13.0854 45.4984 13.7479C45.4629 13.709 45.4267 13.6706 45.389 13.633C44.0618 12.3064 41.9022 12.3064 40.5749 13.633C39.2477 14.9596 39.2477 17.118 40.5749 18.4446C41.2386 19.1079 42.1103 19.4394 42.982 19.4394C43.8536 19.4394 44.7254 19.1079 45.389 18.4446C46.275 17.5591 46.5686 16.3033 46.2719 15.1714C47.261 14.5959 48.2109 14.0077 49.0874 13.4386C49.0875 13.4414 49.0877 13.4439 49.0877 13.4465V25.3083H49.0878ZM42.2582 16.4028C42.4005 16.6857 42.6862 16.849 42.9829 16.849C43.1053 16.849 43.2297 16.8211 43.3465 16.7623C43.8216 16.5235 44.295 16.275 44.7637 16.0205C44.7684 16.4829 44.5955 16.9468 44.2431 17.299C43.5478 17.9938 42.4167 17.9938 41.7214 17.299C41.0262 16.604 41.0262 15.4735 41.7214 14.7786C42.0691 14.4311 42.5257 14.2575 42.9823 14.2575C43.3438 14.2575 43.7043 14.3682 44.0117 14.5859C43.553 14.8351 43.0874 15.0792 42.6181 15.3152C42.218 15.5161 42.0569 16.0031 42.2582 16.4028Z" fill="#FF8A00" stroke="#FF8A00" stroke-width="0.4"/>
<path d="M29.0162 21C28.4636 21 28.0156 21.3485 28.0156 21.7786V38.2214C28.0156 38.6514 28.4636 39 29.0162 39C29.5687 39 30.0167 38.6514 30.0167 38.2214V21.7786C30.0167 21.3485 29.5687 21 29.0162 21Z" fill="#FF8A00" stroke="#FF8A00" stroke-width="0.4"/>
<path d="M25.1315 27.0241C23.961 25.6586 22.0562 25.6587 20.8858 27.024C19.7152 28.3893 19.7152 30.6108 20.8858 31.9761C21.4712 32.6589 22.2399 33.0001 23.0087 33C23.7774 33 24.5464 32.6586 25.1316 31.9761C25.6987 31.3147 26.011 30.4354 26.011 29.5001C26.011 28.5647 25.6986 27.6854 25.1315 27.0241ZM24.1207 30.7969C23.5074 31.5122 22.5099 31.5121 21.8967 30.7969C21.2836 30.0817 21.2836 28.9182 21.8967 28.203C22.2033 27.8454 22.606 27.6667 23.0087 27.6667C23.4114 27.6667 23.8141 27.8454 24.1208 28.203C24.4178 28.5494 24.5814 29.01 24.5814 29.5C24.5813 29.9899 24.4177 30.4505 24.1207 30.7969Z" fill="#FF8A00" stroke="#FF8A00" stroke-width="0.4"/>
<path d="M37.9948 27.024C36.6287 25.6586 34.406 25.6587 33.0402 27.024C31.6741 28.3893 31.6741 30.6108 33.0402 31.9761C33.7232 32.6588 34.6204 33 35.5176 33C36.4147 33 37.312 32.6588 37.9949 31.9761C39.3609 30.6108 39.3609 28.3893 37.9948 27.024ZM36.8151 30.7969C36.0995 31.5122 34.9353 31.5121 34.2198 30.7969C33.5043 30.0817 33.5043 28.9182 34.2198 28.203C34.5776 27.8454 35.0476 27.6667 35.5175 27.6667C35.9874 27.6667 36.4574 27.8454 36.8152 28.203C37.5307 28.9182 37.5307 30.0817 36.8151 30.7969Z" fill="#FF8A00" stroke="#FF8A00" stroke-width="0.4"/>
</svg>
