<svg width="27" height="27" viewBox="0 0 27 27" fill="none" xmlns="http://www.w3.org/2000/svg">
<path d="M13.5381 4.32812C17.5591 4.32812 20.8184 7.58746 20.8184 11.6084C20.8184 14.6848 18.6567 18.0375 14.3893 21.7023C14.1521 21.9061 13.8495 22.0181 13.5367 22.0178C13.2239 22.0175 12.9216 21.905 12.6846 21.7008L12.4024 21.4559C8.32392 17.8866 6.25781 14.6161 6.25781 11.6084C6.25781 7.58746 9.51714 4.32812 13.5381 4.32812ZM13.5381 8.80831C12.7955 8.80831 12.0833 9.10332 11.5581 9.62844C11.033 10.1536 10.738 10.8658 10.738 11.6084C10.738 12.3511 11.033 13.0633 11.5581 13.5884C12.0833 14.1135 12.7955 14.4085 13.5381 14.4085C14.2807 14.4085 14.993 14.1135 15.5181 13.5884C16.0432 13.0633 16.3382 12.3511 16.3382 11.6084C16.3382 10.8658 16.0432 10.1536 15.5181 9.62844C14.993 9.10332 14.2807 8.80831 13.5381 8.80831Z" fill="#2F2F2F"/>
</svg>
