<svg width="144" height="70" viewBox="0 0 144 70" fill="none" xmlns="http://www.w3.org/2000/svg">
<path d="M31.2885 14.9073C31.8018 15.5737 32.4806 16.0707 33.2629 16.3422C33.8259 16.5375 34.4384 16.6139 35.0303 16.5589L35.5144 16.5123L35.6719 16.0411C36.1397 14.6316 35.887 13.0906 34.9889 11.9231C34.1072 10.7769 32.6585 10.1402 31.247 10.2759L30.7628 10.3225L30.6053 10.7937C30.1378 12.1988 30.3902 13.7356 31.2885 14.9073ZM33.8095 12.8737C34.2812 13.4891 34.48 14.2618 34.3723 15.0175C33.6273 14.9413 32.9318 14.5547 32.4681 13.9519C31.9962 13.3364 31.7975 12.5639 31.9051 11.8038C32.6503 11.8803 33.3458 12.2668 33.8095 12.8737Z" fill="#FF8A00"/>
<path d="M37.1027 14.1213C37.2436 14.2063 37.3967 14.2784 37.5539 14.3294C38.3818 14.6181 39.3463 14.4526 40.1949 13.8752L40.5052 13.6629L40.5302 13.2808C40.6131 12.0243 40.1161 10.9545 39.2054 10.4109C38.3073 9.87606 37.1234 9.96949 36.1178 10.653L35.8072 10.8652L35.7825 11.2474C35.6995 12.5037 36.1921 13.5779 37.1027 14.1213ZM38.448 11.7482C38.7667 11.939 38.9694 12.3128 39.0191 12.784C38.597 12.9709 38.179 12.9793 37.86 12.7882C37.5414 12.5973 37.3386 12.2236 37.289 11.7524C37.7071 11.5655 38.1294 11.5569 38.448 11.7482Z" fill="#FF8A00"/>
<path d="M43.0524 15.5682C43.2471 15.6787 43.458 15.7721 43.6692 15.8441C44.6875 16.2009 45.8174 16.099 46.7655 15.5726L47.1919 15.3349L47.1547 14.8381C47.0554 13.484 46.3018 12.2912 45.143 11.6415C43.9964 11.0004 42.5766 11.0004 41.4343 11.6371L41.0078 11.8748L41.0451 12.3716C41.1401 13.7257 41.8935 14.9186 43.0524 15.5682ZM44.4224 12.9954C44.9772 13.3053 45.3785 13.8189 45.5568 14.422C44.9647 14.5918 44.3192 14.5198 43.7726 14.2181C43.218 13.9084 42.8168 13.3946 42.6384 12.7915C43.2264 12.6177 43.8762 12.6857 44.4224 12.9954Z" fill="#FF8A00"/>
<path d="M45.8483 17.0912C44.416 17.3798 43.2321 18.3862 42.69 19.7785L42.5078 20.2413L42.8472 20.598C43.3191 21.099 43.911 21.4854 44.5569 21.7102C45.2646 21.9563 46.0262 22.0072 46.763 21.8589C48.1994 21.5702 49.379 20.5638 49.9213 19.1715L50.1035 18.7087L49.7641 18.3519C48.7705 17.2991 47.2558 16.8067 45.8483 17.0912ZM46.4733 20.3473C45.7283 20.5 44.9379 20.3217 44.3254 19.8761C44.7309 19.2181 45.3809 18.7553 46.1423 18.6024C46.8875 18.4538 47.6779 18.628 48.2948 19.0736C47.8806 19.7317 47.2306 20.1945 46.4733 20.3473Z" fill="#FF8A00"/>
<path d="M50.3772 17.7697C50.6132 17.8503 50.8534 17.9141 51.0976 17.9521L51.5779 18.0286L51.8426 17.6084C52.6416 16.3517 52.7614 14.7809 52.1654 13.4096C51.5779 12.0636 50.3237 11.0833 48.9038 10.8538L48.4235 10.7773L48.1586 11.1977C47.3597 12.4542 47.2398 14.0252 47.8357 15.3963C48.3199 16.5132 49.2473 17.3749 50.3772 17.7697ZM49.1767 12.5096C49.9053 12.7729 50.4765 13.3163 50.7909 14.0422C51.1054 14.7681 51.114 15.579 50.8241 16.2965C50.0955 16.0334 49.5243 15.4898 49.2098 14.7641C48.8952 14.0424 48.887 13.2313 49.1767 12.5096Z" fill="#FF8A00"/>
<path d="M62.0197 18.2918L51.8828 18.8988L51.9696 20.44L62.1067 19.8328C62.5909 19.8032 63.0378 19.5823 63.3609 19.2087C63.6837 18.835 63.8494 18.3554 63.8203 17.8544C63.7623 16.827 62.8972 16.0373 61.8955 16.0969L52.8225 16.6359L52.9093 18.1769L61.9784 17.6335C62.1522 17.6251 62.3055 17.7607 62.3137 17.9432C62.3303 18.1261 62.1937 18.279 62.0197 18.2918Z" fill="#FF8A00"/>
<path d="M39.3113 15.0315C37.8584 15.0145 36.5175 15.7488 35.7143 16.9885L35.4453 17.4045L35.7061 17.8248C36.2276 18.6698 37.0184 19.3106 37.9372 19.6291C38.3635 19.7778 38.8106 19.8542 39.2618 19.8584C40.7104 19.8756 42.0557 19.1411 42.8588 17.9015L43.128 17.4855L42.867 17.0651C42.1054 15.8299 40.7438 15.0485 39.3113 15.0315ZM39.2784 18.3216C38.5252 18.3132 37.8007 17.9821 37.2958 17.4259C37.8173 16.8785 38.5334 16.5641 39.2993 16.5725C40.0524 16.5809 40.777 16.9123 41.2818 17.4685C40.7561 18.0163 40.0399 18.3304 39.2784 18.3216Z" fill="#FF8A00"/>
<path d="M50.9297 60.1302L54.0921 47.6362C54.1003 47.6152 54.1087 47.598 54.1169 47.577C54.4729 46.4859 53.3099 45.4457 51.9313 44.635L58.9803 29.5935C59.0508 29.5001 59.1005 29.3897 59.1378 29.275C59.2246 29.0161 59.3114 28.7402 58.9678 28.324L60.015 25.157C60.4331 23.8877 59.7708 22.5078 58.5334 22.0792C57.2959 21.6504 55.9504 22.3297 55.5281 23.5988L54.7913 25.8279C53.9883 25.4541 53.0445 25.0337 51.931 24.5626C52.2955 23.8111 52.4525 22.9579 52.3532 22.0918L52.2955 21.5952L51.8318 21.4466C50.437 20.9966 48.9302 21.2979 47.8042 22.2573C46.8193 23.0936 46.2602 24.3333 46.2563 25.6366C45.7265 25.4753 45.1882 25.3055 44.6296 25.1272C44.8863 23.9765 44.6586 22.8645 43.9757 22.0748C43.148 21.1154 41.8066 20.7757 40.3909 21.1706L40.0308 21.2725L39.89 21.6248C39.6457 22.2403 39.5464 22.8645 39.5837 23.4545C39.2527 23.3399 38.9216 23.2294 38.582 23.1106C38.4538 23.064 38.3296 23.0216 38.2014 22.9789L38.2303 22.6434C38.3464 21.3911 37.8783 20.3043 36.9802 19.7355C36.0987 19.1751 34.9105 19.2387 33.8881 19.8925L33.5736 20.0964L33.5406 20.4784C33.5159 20.7629 33.5241 21.0388 33.5531 21.3019C32.4231 20.8817 31.3511 20.4698 30.3494 20.0794C31.3636 20.1899 32.3983 19.9308 33.251 19.3195L33.6483 19.035L33.5572 18.5426C33.2841 17.0778 32.3199 15.8722 30.9785 15.3075C29.6292 14.7429 28.1101 14.9298 26.9305 15.7745L26.8228 15.8508C25.7838 15.5664 24.8814 15.3372 24.0951 15.1503L24.8321 12.9172C25.2499 11.6479 24.5878 10.268 23.3503 9.83941C22.1127 9.41064 20.7673 10.0899 20.3451 11.359L19.3019 14.5138C18.7886 14.6327 18.6975 14.9002 18.615 15.1591C18.5859 15.2483 18.5653 15.3374 18.5528 15.4268L16.2803 26.575L15.8954 26.3032C15.167 25.7939 14.1819 25.9765 13.6439 26.7192L12.0087 28.9821C11.752 29.3344 11.6527 29.776 11.7273 30.2174C11.8016 30.6676 12.0544 31.0751 12.4227 31.3296L14.9519 33.0999L14.6661 34.5092C14.6661 34.5176 14.662 34.5265 14.662 34.5349L13.7016 39.2513C13.0973 42.7539 23.8924 47.5043 29.8198 49.5675C31.9473 50.3106 34.0457 50.9389 36.0659 51.4566C36.3224 51.983 36.6703 52.4586 37.1006 52.8704L36.2477 54.9634C36.1275 55.2311 36.0326 55.6641 36.2602 56.1945C37.117 58.2069 42.5641 60.13 42.7256 60.1853H42.7299C43.4831 60.4442 50.1227 62.6262 50.9461 60.1216L50.9297 60.1302ZM47.2998 46.1886L47.188 46.1504C44.51 45.2164 42.9907 44.1424 42.5852 43.6286C43.2268 43.4632 45.1143 43.548 47.8587 44.4903L47.9702 44.5286C50.6485 45.4625 52.1675 46.5365 52.5731 47.0501C51.9356 47.216 50.0482 47.131 47.2998 46.1886ZM22.3858 30.85L22.9032 28.617C24.0414 29.2452 25.2751 29.8608 26.5333 30.4511L25.7593 33.2105L22.3858 30.85ZM18.5196 23.1786L18.5114 23.1742L18.8963 21.2893C21.9221 24.5241 30.8753 28.2812 36.2522 30.1535C41.6207 32.0215 50.9216 34.6239 55.2554 33.9702L54.4483 35.6937L54.4068 35.6767C54.1087 36.5724 47.3121 36.5384 35.4739 32.4164C23.6357 28.2942 18.2258 24.0744 18.5196 23.1786ZM23.6232 18.912C23.3542 20.0412 23.0809 21.2129 22.7996 22.4017C20.4111 20.9201 19.248 19.7823 19.3557 19.3067L19.3019 19.2897L19.7821 16.9334C20.5521 17.4346 21.7565 18.0672 23.6232 18.912ZM29.0996 21.2215C28.7517 22.4908 28.3834 23.8155 28.0067 25.174C26.5413 24.4863 25.2581 23.8241 24.1614 23.2042C24.4552 21.952 24.7449 20.7249 25.0266 19.5364C26.2641 20.071 27.6341 20.6398 29.0996 21.2215ZM33.3257 27.4409C31.91 26.8891 30.5981 26.3457 29.3935 25.8106C29.7786 24.4267 30.1553 23.0768 30.5111 21.7777C31.8191 22.2871 33.1977 22.8009 34.6173 23.3189C34.2031 24.6434 33.7728 26.0231 33.3257 27.4409ZM45.7723 27.093C45.2839 28.3455 44.7706 29.6488 44.2449 30.9859C42.9741 30.6592 41.6164 30.277 40.176 29.827C40.6644 28.4261 41.1404 27.0631 41.5998 25.7514C43.0362 26.2266 44.4314 26.6768 45.7723 27.093ZM57.1427 29.9499L56.1285 32.1149L56.0994 32.1065C55.9007 32.5523 54.2989 32.7263 51.5173 32.4078C52.0015 31.2958 52.4777 30.196 52.9371 29.1261C54.9116 29.6145 56.2405 29.865 57.1427 29.9499ZM49.9612 32.196C48.7193 32.0007 47.2998 31.7248 45.7267 31.351C46.2399 30.0393 46.745 28.7614 47.2208 27.5343C48.7316 27.9885 50.1555 28.3961 51.4553 28.7442C50.9713 29.865 50.4703 31.0199 49.9612 32.196ZM50.9465 42.9962C50.9175 43.0852 50.578 43.3527 49.502 43.4589C49.0426 43.2721 48.6657 43.1364 48.4548 43.064L48.3347 43.0216C48.169 42.9664 47.689 42.8049 47.0473 42.631L49.295 37.49C50.9506 37.6939 52.4324 37.7447 53.5709 37.5662L51.0168 43.0216L50.9465 42.9962ZM27.063 34.1275L27.9197 31.0835C29.1986 31.6481 30.478 32.1787 31.6906 32.6583L30.478 36.5216L27.063 34.1275ZM31.7735 37.426L33.1021 33.1975C33.7644 33.448 34.4019 33.6773 34.9897 33.881C35.594 34.0891 36.2479 34.3098 36.9393 34.5349L35.118 39.7693L31.7735 37.426ZM38.3795 34.985C39.6089 35.3588 40.9126 35.7321 42.2414 36.0761L39.8449 42.1468C39.137 41.9688 38.4168 41.7733 37.6841 41.5652L36.4009 40.6694L38.3795 34.985ZM41.4344 42.5246C41.3972 42.5162 41.3599 42.5076 41.3265 42.4992L43.7189 36.4412C45.089 36.7681 46.4551 37.0526 47.7506 37.2647L45.557 42.2785C44.0131 41.9728 42.2539 41.8371 41.4344 42.5246ZM56.9564 24.0914C57.1098 23.6286 57.6023 23.3825 58.0533 23.5396C58.5043 23.6966 58.7488 24.2018 58.5956 24.6644L57.7098 27.3432C57.3042 27.097 56.7992 26.8124 56.1658 26.4943L56.9564 24.0914ZM48.765 23.4375C49.3611 22.9321 50.1227 22.7074 50.8759 22.8005C50.8264 23.5776 50.4703 24.2993 49.8701 24.8084C49.278 25.3094 48.5167 25.5345 47.7592 25.4455C47.8171 24.6688 48.1731 23.9427 48.765 23.4375ZM50.8305 25.9975C50.8927 25.9467 50.9422 25.8915 51.0004 25.8363C53.6493 26.9527 55.2719 27.7424 56.2571 28.2772C54.825 28.0223 52.6064 27.4875 49.7337 26.6682C50.1268 26.4985 50.4992 26.2818 50.8305 25.9975ZM41.1652 22.5714C41.8647 22.4695 42.4775 22.6564 42.854 23.0894C43.1893 23.476 43.3011 24.0406 43.1936 24.656C42.5643 24.4521 41.9186 24.2358 41.2606 24.0152C41.0659 23.6116 41.0246 23.1066 41.1652 22.5714ZM40.1721 25.2716C39.7084 26.592 39.2324 27.9631 38.7398 29.3684C38.0859 29.1562 37.4196 28.9311 36.7407 28.6934C36.0536 28.4557 35.3873 28.2136 34.7416 27.9761C35.1885 26.5495 35.6231 25.1614 36.0371 23.8283C36.7159 24.0704 37.4071 24.3165 38.1025 24.5584C38.7935 24.8045 39.4848 25.0421 40.1721 25.2716ZM35.0351 21.0092C35.4616 20.8351 35.8837 20.8395 36.1941 21.039C36.5085 21.2387 36.6991 21.6164 36.7405 22.0876C36.5044 22.1852 36.2725 22.219 36.0573 22.2064C35.8837 22.1428 35.7015 22.0792 35.5318 22.0156C35.2503 21.8073 35.0724 21.4505 35.0351 21.0092ZM21.4875 16.1653C22.6219 16.3648 24.3725 16.7595 26.9059 17.4602C27.1997 18.1647 27.6677 18.7763 28.2635 19.2303C25.1754 17.9652 22.8739 16.9082 21.4875 16.1653ZM30.4157 16.7257C31.1235 17.0188 31.6658 17.5916 31.9389 18.3049C31.26 18.6148 30.4778 18.6405 29.7741 18.3431C29.0662 18.0502 28.5239 17.4772 28.251 16.7639C28.9296 16.4538 29.708 16.4284 30.4157 16.7257ZM21.7815 11.8392C21.9346 11.3764 22.4272 11.1303 22.8782 11.2874C23.3292 11.4444 23.5736 11.9496 23.4205 12.4122L22.6215 14.8068C21.9303 14.6669 21.3589 14.5735 20.8913 14.5183L21.7815 11.8392ZM18.0932 25.225C18.8961 26.074 20.1007 26.9571 21.5368 27.8274L21.0527 29.9203L17.6254 27.5217L18.0932 25.225ZM23.3789 41.6968C23.0727 42.7963 22.7746 43.8661 22.489 44.9063C21.3548 44.3501 20.349 43.8153 19.48 43.3017C19.7283 42.2531 19.9807 41.1746 20.2374 40.0794C21.231 40.6356 22.2947 41.1791 23.3789 41.6968ZM24.7657 42.3381C25.9288 42.8601 27.092 43.3485 28.1969 43.7857C27.8536 44.8767 27.5224 45.9381 27.2034 46.9697C26.0033 46.4985 24.8937 46.0274 23.8754 45.5604C24.1614 44.5157 24.4595 43.4375 24.7657 42.3381ZM16.1397 34.811L16.2928 34.0511L27.3735 41.8117C19.9062 38.7295 16.1561 35.796 16.1397 34.811ZM15.1584 39.6208L15.7296 36.8273C16.4828 37.6341 17.5799 38.4618 18.8836 39.2727C18.6314 40.3593 18.3785 41.4249 18.1343 42.4651C16.1561 41.1704 15.1666 40.1388 15.1584 39.6208ZM28.6152 47.5087C28.9339 46.4813 29.2693 45.4157 29.6087 44.3291C30.209 44.554 30.7885 44.7662 31.3223 44.9531C31.6701 45.0764 32.0177 45.191 32.3612 45.3055L33.0235 45.7682C32.6757 46.7658 32.3322 47.7424 32.0011 48.6892C31.434 48.5065 30.8669 48.3154 30.2958 48.1162C29.7205 47.9121 29.1616 47.7126 28.6152 47.5087ZM34.2488 46.8378C34.9442 47.6446 35.4036 48.6506 35.5525 49.7376C34.857 49.5507 34.1577 49.3512 33.4457 49.1392C33.7065 48.3919 33.9755 47.6236 34.2488 46.8378ZM37.0468 49.5679C36.79 47.5767 35.7138 45.7852 34.0995 44.6558L33.0565 43.9257L33.0608 43.9173C33.0526 43.9131 33.044 43.9131 33.0358 43.9089L13.2711 30.0647C13.2379 30.0435 13.217 30.0053 13.2088 29.9669C13.2047 29.9415 13.2088 29.9203 13.217 29.9077L14.8522 27.6448C14.8976 27.5811 14.9805 27.5429 15.0469 27.5856L40.2134 45.208L37.7299 51.3212C37.3657 50.8202 37.1338 50.2342 37.0468 49.5679ZM37.6304 55.5749L41.7863 45.3481L41.9352 45.1272C42.5561 45.6748 43.3922 46.163 44.2035 46.5666C43.5992 48.2818 42.966 50.0901 42.3282 51.9028C41.6578 53.8174 40.9873 55.7195 40.3539 57.5238C38.9466 56.8103 37.734 56.025 37.6304 55.5749ZM43.2018 58.7335C42.7506 58.5848 42.2457 58.3854 41.7239 58.1647C42.3698 56.3306 43.0569 54.382 43.7441 52.4248C44.3689 50.6459 44.9901 48.8714 45.5858 47.186C46.0786 47.3899 46.4842 47.5341 46.7077 47.6106L46.8279 47.653C46.9892 47.7082 47.4613 47.8653 48.0904 48.0395C47.569 49.763 47.0349 51.5377 46.4968 53.3122C45.8966 55.299 45.2922 57.2859 44.717 59.1963C44.2367 59.0646 43.7316 58.916 43.2018 58.7335ZM46.1863 59.5358C46.7534 57.6595 47.3411 55.7149 47.9289 53.7706C48.4794 51.9579 49.0256 50.1493 49.5556 48.3919C50.4662 48.5743 51.4555 48.7016 52.2875 48.6338L49.5102 59.6038C49.183 59.8161 47.9866 59.8797 46.1863 59.5358Z" fill="#FF8A00"/>
<path d="M79.0938 19.0312H84.9844V20.5469H80.6875V23.7969H82C83.2604 23.7969 84.2552 24.0833 84.9844 24.6562C85.724 25.2292 86.0938 26.1042 86.0938 27.2812C86.0938 28.1875 85.8698 28.9062 85.4219 29.4375C84.9844 29.9688 84.4323 30.3385 83.7656 30.5469C83.5365 30.599 83.2917 30.6354 83.0312 30.6562C82.7812 30.6771 82.5625 30.6875 82.375 30.6875H79.0938V19.0312ZM80.6875 25.2656V29.2031H82.2031C82.849 29.2031 83.375 29.0677 83.7812 28.7969C84.1979 28.526 84.4271 28.0104 84.4688 27.25C84.4583 26.8958 84.3854 26.5938 84.25 26.3438C84.125 26.0938 83.9635 25.8906 83.7656 25.7344C83.5573 25.5677 83.3229 25.4479 83.0625 25.375C82.8125 25.3021 82.5573 25.2656 82.2969 25.2656H80.6875ZM91.625 30.6875V30.1094C91.6354 30.099 91.5104 30.1875 91.25 30.375C91.0312 30.5208 90.7656 30.6406 90.4531 30.7344C90.1406 30.8177 89.7865 30.8594 89.3906 30.8594C89.1302 30.8594 88.8698 30.8125 88.6094 30.7188C88.3594 30.6146 88.125 30.4583 87.9062 30.25C87.7188 30.0417 87.5625 29.8021 87.4375 29.5312C87.3125 29.25 87.25 28.9323 87.25 28.5781C87.25 27.9531 87.4219 27.4062 87.7656 26.9375C88.1094 26.4583 88.526 26.1354 89.0156 25.9688C89.3073 25.875 89.599 25.8073 89.8906 25.7656C90.1927 25.724 90.4792 25.6979 90.75 25.6875C91 25.6771 91.2188 25.6719 91.4062 25.6719C91.6042 25.6823 91.6771 25.6875 91.625 25.6875V25.0781C91.625 25.0156 91.6094 24.8854 91.5781 24.6875C91.5469 24.4792 91.4896 24.2917 91.4062 24.125C91.3229 23.9792 91.1979 23.849 91.0312 23.7344C90.875 23.6198 90.6458 23.5625 90.3438 23.5625C89.9583 23.5625 89.6615 23.6562 89.4531 23.8438C89.2552 24.0312 89.1562 24.3646 89.1562 24.8438H87.4219C87.4219 24.3958 87.4792 24.0312 87.5938 23.75C87.7188 23.4583 87.9062 23.1979 88.1562 22.9688C88.4167 22.7292 88.724 22.5365 89.0781 22.3906C89.4323 22.2448 89.8542 22.1719 90.3438 22.1719C91.3229 22.1719 92.0365 22.4531 92.4844 23.0156C92.9427 23.5677 93.1719 24.2344 93.1719 25.0156V30.6875H91.625ZM91.625 27.5469V26.9531C91.5312 26.9323 91.3333 26.9271 91.0312 26.9375C90.7292 26.9479 90.4219 26.9948 90.1094 27.0781C89.974 27.1198 89.8281 27.1771 89.6719 27.25C89.5156 27.3125 89.3802 27.3958 89.2656 27.5C89.1615 27.6146 89.0677 27.75 88.9844 27.9062C88.9115 28.0521 88.875 28.224 88.875 28.4219C88.875 28.8594 88.9792 29.1458 89.1875 29.2812C89.3958 29.4062 89.6458 29.4688 89.9375 29.4688C90.1875 29.4688 90.4688 29.3594 90.7812 29.1406C91.1562 28.8906 91.3906 28.625 91.4844 28.3438C91.5781 27.9792 91.625 27.7135 91.625 27.5469ZM94.8438 30.6875V22.375H96.2969V25.6875H99.1406V22.375H100.609V30.6875H99.1406V27.0781H96.2969V30.6875H94.8438ZM103.781 25.6406H105.219C106.083 25.6406 106.807 25.8542 107.391 26.2812C107.984 26.7083 108.281 27.3438 108.281 28.1875C108.281 28.8333 108.083 29.3646 107.688 29.7812C107.302 30.1979 106.854 30.4635 106.344 30.5781C105.99 30.651 105.656 30.6875 105.344 30.6875H102.312V22.375H103.781V25.6406ZM103.781 27.0156V29.2969H105.297C105.745 29.2969 106.104 29.2083 106.375 29.0312C106.656 28.8542 106.797 28.5625 106.797 28.1562C106.797 27.9375 106.75 27.7552 106.656 27.6094C106.573 27.4531 106.474 27.3385 106.359 27.2656C106.224 27.1823 106.068 27.1198 105.891 27.0781C105.714 27.0365 105.542 27.0156 105.375 27.0156H103.781ZM109.516 30.6875V22.375H110.969V25.0781L113.531 22.375H115.469L111.828 26.2969L115.875 30.6875H113.828L110.969 27.6562V30.6875H109.516ZM120.812 30.6875V30.1094C120.823 30.099 120.698 30.1875 120.438 30.375C120.219 30.5208 119.953 30.6406 119.641 30.7344C119.328 30.8177 118.974 30.8594 118.578 30.8594C118.318 30.8594 118.057 30.8125 117.797 30.7188C117.547 30.6146 117.312 30.4583 117.094 30.25C116.906 30.0417 116.75 29.8021 116.625 29.5312C116.5 29.25 116.438 28.9323 116.438 28.5781C116.438 27.9531 116.609 27.4062 116.953 26.9375C117.297 26.4583 117.714 26.1354 118.203 25.9688C118.495 25.875 118.786 25.8073 119.078 25.7656C119.38 25.724 119.667 25.6979 119.938 25.6875C120.188 25.6771 120.406 25.6719 120.594 25.6719C120.792 25.6823 120.865 25.6875 120.812 25.6875V25.0781C120.812 25.0156 120.797 24.8854 120.766 24.6875C120.734 24.4792 120.677 24.2917 120.594 24.125C120.51 23.9792 120.385 23.849 120.219 23.7344C120.062 23.6198 119.833 23.5625 119.531 23.5625C119.146 23.5625 118.849 23.6562 118.641 23.8438C118.443 24.0312 118.344 24.3646 118.344 24.8438H116.609C116.609 24.3958 116.667 24.0312 116.781 23.75C116.906 23.4583 117.094 23.1979 117.344 22.9688C117.604 22.7292 117.911 22.5365 118.266 22.3906C118.62 22.2448 119.042 22.1719 119.531 22.1719C120.51 22.1719 121.224 22.4531 121.672 23.0156C122.13 23.5677 122.359 24.2344 122.359 25.0156V30.6875H120.812ZM120.812 27.5469V26.9531C120.719 26.9323 120.521 26.9271 120.219 26.9375C119.917 26.9479 119.609 26.9948 119.297 27.0781C119.161 27.1198 119.016 27.1771 118.859 27.25C118.703 27.3125 118.568 27.3958 118.453 27.5C118.349 27.6146 118.255 27.75 118.172 27.9062C118.099 28.0521 118.062 28.224 118.062 28.4219C118.062 28.8594 118.167 29.1458 118.375 29.2812C118.583 29.4062 118.833 29.4688 119.125 29.4688C119.375 29.4688 119.656 29.3594 119.969 29.1406C120.344 28.8906 120.578 28.625 120.672 28.3438C120.766 27.9792 120.812 27.7135 120.812 27.5469ZM128.828 30.6875V22.375H130.281V25.6875H133.125V22.375H134.594V30.6875H133.125V27.0781H130.281V30.6875H128.828ZM140.453 30.6875V30.1094C140.464 30.099 140.339 30.1875 140.078 30.375C139.859 30.5208 139.594 30.6406 139.281 30.7344C138.969 30.8177 138.615 30.8594 138.219 30.8594C137.958 30.8594 137.698 30.8125 137.438 30.7188C137.188 30.6146 136.953 30.4583 136.734 30.25C136.547 30.0417 136.391 29.8021 136.266 29.5312C136.141 29.25 136.078 28.9323 136.078 28.5781C136.078 27.9531 136.25 27.4062 136.594 26.9375C136.938 26.4583 137.354 26.1354 137.844 25.9688C138.135 25.875 138.427 25.8073 138.719 25.7656C139.021 25.724 139.307 25.6979 139.578 25.6875C139.828 25.6771 140.047 25.6719 140.234 25.6719C140.432 25.6823 140.505 25.6875 140.453 25.6875V25.0781C140.453 25.0156 140.438 24.8854 140.406 24.6875C140.375 24.4792 140.318 24.2917 140.234 24.125C140.151 23.9792 140.026 23.849 139.859 23.7344C139.703 23.6198 139.474 23.5625 139.172 23.5625C138.786 23.5625 138.49 23.6562 138.281 23.8438C138.083 24.0312 137.984 24.3646 137.984 24.8438H136.25C136.25 24.3958 136.307 24.0312 136.422 23.75C136.547 23.4583 136.734 23.1979 136.984 22.9688C137.245 22.7292 137.552 22.5365 137.906 22.3906C138.26 22.2448 138.682 22.1719 139.172 22.1719C140.151 22.1719 140.865 22.4531 141.312 23.0156C141.771 23.5677 142 24.2344 142 25.0156V30.6875H140.453ZM140.453 27.5469V26.9531C140.359 26.9323 140.161 26.9271 139.859 26.9375C139.557 26.9479 139.25 26.9948 138.938 27.0781C138.802 27.1198 138.656 27.1771 138.5 27.25C138.344 27.3125 138.208 27.3958 138.094 27.5C137.99 27.6146 137.896 27.75 137.812 27.9062C137.74 28.0521 137.703 28.224 137.703 28.4219C137.703 28.8594 137.807 29.1458 138.016 29.2812C138.224 29.4062 138.474 29.4688 138.766 29.4688C139.016 29.4688 139.297 29.3594 139.609 29.1406C139.984 28.8906 140.219 28.625 140.312 28.3438C140.406 27.9792 140.453 27.7135 140.453 27.5469ZM84.5781 41.375V48.2969H85.5312V50.7656H84.0938V49.6875H79.75V50.7656H78.2812V48.2969H79.2969C79.5052 47.276 79.6667 46.1979 79.7812 45.0625C79.9062 43.9167 79.9688 42.6875 79.9688 41.375H84.5781ZM80.7812 48.2969H83.1094V42.7656H81.4219C81.401 43.651 81.3333 44.5938 81.2188 45.5938C81.1146 46.5938 80.9688 47.4948 80.7812 48.2969ZM86.6719 52.125V41.375H88.1875V42.1719C88.3229 41.9323 88.5521 41.7083 88.875 41.5C89.2083 41.2812 89.6042 41.1719 90.0625 41.1719C90.5 41.1719 90.9062 41.276 91.2812 41.4844C91.6562 41.6927 91.9896 41.9896 92.2812 42.375C92.5625 42.75 92.7812 43.2083 92.9375 43.75C93.0938 44.2917 93.1719 44.9115 93.1719 45.6094C93.1719 46.1406 93.1042 46.6562 92.9688 47.1562C92.8333 47.6458 92.6406 48.0938 92.3906 48.5C92.1094 48.8854 91.7708 49.2031 91.375 49.4531C90.9792 49.6927 90.5208 49.8125 90 49.8125C89.4792 49.8125 89.0781 49.7188 88.7969 49.5312C88.526 49.3333 88.3229 49.125 88.1875 48.9062V52.125H86.6719ZM88.2812 45.4531C88.2812 45.7552 88.3125 46.0885 88.375 46.4531C88.4375 46.8073 88.5365 47.1406 88.6719 47.4531C88.8177 47.7344 89 47.9635 89.2188 48.1406C89.4375 48.3177 89.6875 48.4062 89.9688 48.4062C90.2188 48.4062 90.4427 48.3385 90.6406 48.2031C90.8385 48.0677 91 47.8698 91.125 47.6094C91.25 47.3385 91.349 47.0312 91.4219 46.6875C91.5052 46.3438 91.5469 45.9792 91.5469 45.5938C91.5469 45.1875 91.5052 44.7969 91.4219 44.4219C91.349 44.0365 91.2448 43.7135 91.1094 43.4531C90.9635 43.1719 90.7917 42.9583 90.5938 42.8125C90.3958 42.6562 90.1771 42.5781 89.9375 42.5781C89.4896 42.5781 89.099 42.8385 88.7656 43.3594C88.4427 43.8698 88.2812 44.5677 88.2812 45.4531ZM97.7344 49.8594C96.6719 49.8594 95.8073 49.4792 95.1406 48.7188C94.4844 47.9479 94.1562 46.8958 94.1562 45.5625C94.1562 45 94.224 44.4531 94.3594 43.9219C94.4948 43.3802 94.7135 42.9115 95.0156 42.5156C95.3177 42.1094 95.6875 41.7865 96.125 41.5469C96.5729 41.2969 97.099 41.1719 97.7031 41.1719C98.849 41.1719 99.7344 41.5833 100.359 42.4062C100.995 43.2188 101.312 44.2656 101.312 45.5469C101.312 46.8177 101 47.8542 100.375 48.6562C99.7604 49.4583 98.8802 49.8594 97.7344 49.8594ZM95.7812 45.5625C95.7812 45.9688 95.8229 46.3542 95.9062 46.7188C95.9896 47.0729 96.1042 47.3854 96.25 47.6562C96.4062 47.9167 96.6042 48.1198 96.8438 48.2656C97.0938 48.401 97.3958 48.4688 97.75 48.4688C98.0938 48.4688 98.3802 48.3958 98.6094 48.25C98.849 48.1042 99.0417 47.901 99.1875 47.6406C99.3542 47.3698 99.474 47.0521 99.5469 46.6875C99.6302 46.3229 99.6719 45.9427 99.6719 45.5469C99.6719 45.1719 99.6302 44.7969 99.5469 44.4219C99.474 44.0469 99.3594 43.724 99.2031 43.4531C99.0469 43.1823 98.8438 42.9688 98.5938 42.8125C98.3542 42.6458 98.0521 42.5625 97.6875 42.5625C97.3438 42.5625 97.0573 42.6406 96.8281 42.7969C96.599 42.9531 96.4062 43.1615 96.25 43.4219C96.1042 43.6823 95.9896 44.0052 95.9062 44.3906C95.8229 44.7656 95.7812 45.1562 95.7812 45.5625ZM102.891 49.6875V41.375H105.5C106.396 41.375 107.094 41.5677 107.594 41.9531C108.104 42.3281 108.359 42.875 108.359 43.5938C108.359 44.0208 108.26 44.3698 108.062 44.6406C107.865 44.9115 107.615 45.1302 107.312 45.2969C107.385 45.3177 107.484 45.3542 107.609 45.4062C107.745 45.4583 107.88 45.5312 108.016 45.625C108.234 45.7708 108.396 45.9844 108.5 46.2656C108.604 46.5469 108.656 46.8698 108.656 47.2344C108.656 47.6302 108.573 47.9948 108.406 48.3281C108.24 48.6615 108.016 48.9271 107.734 49.125C107.453 49.3333 107.115 49.4792 106.719 49.5625C106.323 49.6458 106 49.6875 105.75 49.6875H102.891ZM104.391 42.7656V44.6875H105.438C105.833 44.6875 106.172 44.6146 106.453 44.4688C106.734 44.3125 106.875 44.0312 106.875 43.625C106.875 43.3021 106.734 43.0781 106.453 42.9531C106.182 42.8281 105.875 42.7656 105.531 42.7656H104.391ZM104.391 46.0625V48.2969H105.656C106.125 48.2969 106.484 48.2135 106.734 48.0469C106.995 47.8802 107.125 47.6094 107.125 47.2344C107.125 46.7865 106.995 46.4792 106.734 46.3125C106.474 46.1458 106.135 46.0625 105.719 46.0625H104.391ZM114.375 49.6875V49.1094C114.385 49.099 114.26 49.1875 114 49.375C113.781 49.5208 113.516 49.6406 113.203 49.7344C112.891 49.8177 112.536 49.8594 112.141 49.8594C111.88 49.8594 111.62 49.8125 111.359 49.7188C111.109 49.6146 110.875 49.4583 110.656 49.25C110.469 49.0417 110.312 48.8021 110.188 48.5312C110.062 48.25 110 47.9323 110 47.5781C110 46.9531 110.172 46.4062 110.516 45.9375C110.859 45.4583 111.276 45.1354 111.766 44.9688C112.057 44.875 112.349 44.8073 112.641 44.7656C112.943 44.724 113.229 44.6979 113.5 44.6875C113.75 44.6771 113.969 44.6719 114.156 44.6719C114.354 44.6823 114.427 44.6875 114.375 44.6875V44.0781C114.375 44.0156 114.359 43.8854 114.328 43.6875C114.297 43.4792 114.24 43.2917 114.156 43.125C114.073 42.9792 113.948 42.849 113.781 42.7344C113.625 42.6198 113.396 42.5625 113.094 42.5625C112.708 42.5625 112.411 42.6562 112.203 42.8438C112.005 43.0312 111.906 43.3646 111.906 43.8438H110.172C110.172 43.3958 110.229 43.0312 110.344 42.75C110.469 42.4583 110.656 42.1979 110.906 41.9688C111.167 41.7292 111.474 41.5365 111.828 41.3906C112.182 41.2448 112.604 41.1719 113.094 41.1719C114.073 41.1719 114.786 41.4531 115.234 42.0156C115.693 42.5677 115.922 43.2344 115.922 44.0156V49.6875H114.375ZM114.375 46.5469V45.9531C114.281 45.9323 114.083 45.9271 113.781 45.9375C113.479 45.9479 113.172 45.9948 112.859 46.0781C112.724 46.1198 112.578 46.1771 112.422 46.25C112.266 46.3125 112.13 46.3958 112.016 46.5C111.911 46.6146 111.818 46.75 111.734 46.9062C111.661 47.0521 111.625 47.224 111.625 47.4219C111.625 47.8594 111.729 48.1458 111.938 48.2812C112.146 48.4062 112.396 48.4688 112.688 48.4688C112.938 48.4688 113.219 48.3594 113.531 48.1406C113.906 47.8906 114.141 47.625 114.234 47.3438C114.328 46.9792 114.375 46.7135 114.375 46.5469ZM116.781 49.6875L119.578 45.3438L117.078 41.375H118.828L120.469 43.9219L122.109 41.375H123.875L121.328 45.3438L124.109 49.6875H122.359L120.469 46.7188L118.531 49.6875H116.781Z" fill="#FF8A00"/>
</svg>
