<svg width="61" height="60" viewBox="0 0 61 60" fill="none" xmlns="http://www.w3.org/2000/svg">
<path d="M45.1248 38C45.1248 35.7939 43.4823 34 41.4625 34H35.0533V25.5C35.0533 23.019 33.2047 21 30.9332 21C28.6617 21 26.8131 23.019 26.8131 25.5V29.5859L22.7716 34H3.9234C3.41732 34 3.00781 34.4478 3.00781 35V59C3.00781 59.5518 3.41732 60 3.9234 60H41.4625C43.4823 60 45.1248 58.2061 45.1248 56C45.1248 54.7998 44.6286 53.7339 43.8596 53C44.6286 52.2656 45.1248 51.1997 45.1248 50C45.1248 48.7998 44.6286 47.7339 43.8596 47C44.6286 46.2656 45.1248 45.1997 45.1248 44C45.1248 42.7998 44.6286 41.7339 43.8596 41C44.6286 40.2656 45.1248 39.1997 45.1248 38ZM4.83899 36H10.3325V58H4.83899V36ZM17.6572 58H12.1637V36H17.6572V58ZM41.4625 42C42.4724 42 43.2936 42.897 43.2936 44C43.2936 45.103 42.4724 46 41.4625 46H36.8845V48H41.4625C42.4724 48 43.2936 48.897 43.2936 50C43.2936 51.103 42.4724 52 41.4625 52H36.8845V54H41.4625C42.4724 54 43.2936 54.897 43.2936 56C43.2936 57.103 42.4724 58 41.4625 58H19.4884V36H23.1507C23.3944 36 23.6268 35.895 23.7981 35.707L28.376 30.707C28.5481 30.52 28.6442 30.2646 28.6442 30V25.5C28.6442 24.1221 29.6707 23 30.9332 23C32.1957 23 33.2222 24.1221 33.2222 25.5V35C33.2222 35.5518 33.6317 36 34.1378 36H41.4625C42.4724 36 43.2936 36.897 43.2936 38C43.2936 39.103 42.4724 40 41.4625 40H36.8845V42H41.4625Z" fill="#FF8A00"/>
<path d="M24.7604 12.8342L23.7237 18.8188C23.6597 19.1916 23.8013 19.5703 24.0916 19.7988C24.3813 20.0274 24.7702 20.0636 25.0927 19.8952L30.5822 17.0353L36.0717 19.8952C36.2068 19.9642 36.3526 19.9995 36.4989 19.9995C36.7027 19.9995 36.9046 19.931 37.0743 19.7979C37.3641 19.5703 37.5057 19.1916 37.4417 18.8178L36.405 12.8332L40.8045 8.5856C41.077 8.32284 41.1808 7.91917 41.0686 7.54926C40.9574 7.17886 40.6522 6.90926 40.2857 6.85691L34.1615 5.97519L31.4324 0.496516C31.1029 -0.165505 30.0634 -0.165505 29.7353 0.496516L27.0062 5.97519L20.882 6.85691C20.5142 6.91024 20.2099 7.17984 20.0986 7.54926C19.9879 7.91917 20.0902 8.32284 20.3632 8.5856L24.7604 12.8342ZM27.7545 7.8903C28.0621 7.84627 28.3308 7.64859 28.4734 7.36088L30.5822 3.12698L32.6911 7.36088C32.8336 7.64859 33.1029 7.84627 33.4099 7.8903L38.0142 8.5533L34.7205 11.7352C34.4793 11.9676 34.369 12.3131 34.4265 12.6502L35.2164 17.2105L31.0085 15.0189C30.8734 14.9489 30.7276 14.9147 30.5822 14.9147C30.4369 14.9147 30.2906 14.9499 30.1564 15.0189L25.9485 17.2105L26.7379 12.6502C26.7964 12.3131 26.6856 11.9676 26.4444 11.7352L23.1507 8.5533L27.7545 7.8903Z" fill="#FF8A00"/>
<path d="M57.3789 15.0927L52.2265 14.316L49.9333 9.49295C49.6191 8.83568 48.6496 8.83568 48.3358 9.49295L46.0426 14.316L40.8903 15.0927C40.5426 15.1451 40.2548 15.4157 40.1499 15.7877C40.0464 16.1596 40.1447 16.5643 40.4038 16.8271L44.0948 20.5613L43.2267 25.8165C43.1655 26.1894 43.2981 26.5682 43.5696 26.7968C43.8414 27.0253 44.205 27.0645 44.5126 26.8971L49.1343 24.3742L53.7561 26.8961C53.8835 26.9651 54.0187 26.9994 54.154 26.9994C54.347 26.9994 54.5396 26.9299 54.6991 26.7958C54.971 26.5672 55.1037 26.1884 55.042 25.8155L54.1739 20.5603L57.8654 16.8257C58.124 16.5634 58.2227 16.1581 58.1187 15.7867C58.0139 15.4157 57.7261 15.1451 57.3789 15.0927ZM52.5874 19.4538C52.3574 19.6862 52.2516 20.0352 52.3076 20.3758L52.9431 24.2201L49.5323 22.3584C49.4062 22.2903 49.2705 22.2551 49.1343 22.2551C48.9982 22.2551 48.862 22.2894 48.7364 22.3584L45.3261 24.2201L45.9611 20.3758C46.017 20.0352 45.9117 19.6862 45.6817 19.4538L43.0491 16.7899L46.7463 16.2325C47.0341 16.1895 47.2871 15.9942 47.4232 15.7074L49.1343 12.1069L50.8455 15.7074C50.9816 15.9942 51.2346 16.1885 51.5223 16.2325L55.22 16.7899L52.5874 19.4538Z" fill="#FF8A00"/>
<path d="M6.99327 20.5611L6.12515 25.8162C6.0639 26.1891 6.19654 26.5679 6.46799 26.7964C6.73988 27.025 7.10344 27.0641 7.41103 26.8967L12.0328 24.3749L16.6545 26.8967C16.7819 26.9657 16.9172 27 17.0525 27C17.2455 27 17.4381 26.9305 17.5976 26.7964C17.8695 26.5679 18.0021 26.1891 17.9404 25.8162L17.0723 20.5611L20.7638 16.8265C21.0225 16.5642 21.1212 16.159 21.0172 15.7875C20.9123 15.4156 20.6237 15.1449 20.2773 15.0926L15.125 14.3159L12.8317 9.49294C12.5175 8.83569 11.548 8.83569 11.2343 9.49294L8.94104 14.3159L3.78871 15.0926C3.44102 15.1449 3.15326 15.4156 3.04838 15.7875C2.94483 16.159 3.0431 16.5642 3.30221 16.8265L6.99327 20.5611ZM9.64479 16.2334C9.93255 16.1903 10.1855 15.995 10.3217 15.7082L12.0328 12.1078L13.7439 15.7082C13.8801 15.995 14.133 16.1893 14.4208 16.2334L18.1184 16.7908L15.4859 19.4545C15.2558 19.687 15.1501 20.0359 15.2061 20.3766L15.8415 24.2207L12.4307 22.3591C12.3047 22.2911 12.169 22.2558 12.0328 22.2558C11.8966 22.2558 11.7604 22.2901 11.6349 22.3591L8.22451 24.2207L8.85951 20.3766C8.91548 20.0359 8.81016 19.687 8.58013 19.4545L5.94756 16.7908L9.64479 16.2334Z" fill="#FF8A00"/>
<path d="M14.0391 54H16.0446V56H14.0391V54Z" fill="#FF8A00"/>
<path d="M14.0391 50H16.0446V52H14.0391V50Z" fill="#FF8A00"/>
<path d="M14.0391 46H16.0446V48H14.0391V46Z" fill="#FF8A00"/>
</svg>
